/* XPM */
static char *collectible_1[] = {
/* columns rows colors chars-per-pixel */
"64 64 3 1 ",
"  c None",
". c black",
"X c white",
/* pixels */
"                                                                ",
"                                                                ",
"                                                                ",
"                                                                ",
"                                                                ",
"                                                                ",
"                                                                ",
"                                                                ",
"                                                                ",
"                                                                ",
"                                                                ",
"                                                                ",
"                                                                ",
"                                                                ",
"                                                                ",
"                                                                ",
"                                                                ",
"                                                                ",
"                     ......................                     ",
"                     .XXXXXXXXXXXXXXXXXXXX.                     ",
"                     .XXXXXXXXXXXXXXXXXXXX.                     ",
"                     .XXXXXXXXXXXXXXXXXXXX.                     ",
"                     .XXXXXXXXXXXXXXXXXXXX.                     ",
"                     .XXXX..XXXXX..XXXXXXX.                     ",
"                     .XXX.XX.....XX.....XX.                     ",
"                     .XXXXXXXXXXXXXXXXXXXX.                     ",
"                     .XXXXXXXXXXXXXXXXXXXX.                     ",
"                     .XXXXXXXXXXXXXXXXXXXX.                     ",
"                     .XXXXXXXXXX.XXXXXXXXX.                     ",
"                     .XXX.......X.......XX.                     ",
"                     .XXXXXXXXXXXXXXXXXXXX.                     ",
"                     .XXXXXXXXXXXXXXXXXXXX.                     ",
"                     .XXXXXXXXXXXXXXXXXXXX.                     ",
"                     .XXXXXXX.XXXXXXX..XXX.                     ",
"                     .XXX....X.......XX.XX.                     ",
"                     .XXXXXXXXXXXXXXXXXXXX.                     ",
"                     .XXXXXXXXXXXXXXXXXXXX.                     ",
"                     .XXXXXXXXXXXXXXXXXXXX.                     ",
"                     .XXXXXX..XXXXXX..XXXX.                     ",
"                     .XXX...XX......XX.XXX.                     ",
"                     .XXXXXXXXXXXXXXXXXXXX.                     ",
"                     .XXXXXXXXXXXXXXXXXXXX.                     ",
"                     .XXXXXXXXXXXXXXXXXXXX.                     ",
"                     .XXXXXXXXXXXXXXXXXXXX.                     ",
"                     ......................                     ",
"                                                                ",
"                                                                ",
"                                                                ",
"                                                                ",
"                                                                ",
"                                                                ",
"                                                                ",
"                                                                ",
"                                                                ",
"                                                                ",
"                                                                ",
"                                                                ",
"                                                                ",
"                                                                ",
"                                                                ",
"                                                                ",
"                                                                ",
"                                                                ",
"                                                                "
};
