/* XPM */
static char *collectible_2[] = {
/* columns rows colors chars-per-pixel */
"64 64 3 1 ",
"  c None",
". c black",
"X c white",
/* pixels */
"                                                                ",
"                                                                ",
"                                                                ",
"                                                                ",
"                                                                ",
"                                                                ",
"                                                                ",
"                                                                ",
"                                                                ",
"                                                                ",
"                                                                ",
"                                                                ",
"                                                                ",
"                                                                ",
"                                                                ",
"                                                                ",
"                                                                ",
"                                                                ",
"                     ......................                     ",
"                     .XXXXXXXXXXXXXXXXXXXX.                     ",
"                     .XXXXXXXXXXXXXXXXXXXX.                     ",
"                     .XXXXXXXXXXXXXXXXXXXX.                     ",
"                     .XXXXXXXXXXXXXXXXXXXX.                     ",
"                     .XXXXXXX..XXXXXX.XXXX.                     ",
"                     .XXX....XX......X..XX.                     ",
"                     .XXXXXXXXXXXXXXXXXXXX.                     ",
"                     .XXXXXXXXXXXXXXXXXXXX.                     ",
"                     .XXXXXXXXXXXXXXXXXXXX.                     ",
"                     .XXXXX..XXXXXXX.XXXXX.                     ",
"                     .XXX..XX.......X...XX.                     ",
"                     .XXXXXXXXXXXXXXXXXXXX.                     ",
"                     .XXXXXXXXXXXXXXXXXXXX.                     ",
"                     .XXXXXXXXXXXXXXXXXXXX.                     ",
"                     .XXXXX.XXXX..XXXXXXXX.                     ",
"                     .XXX..X....XX......XX.                     ",
"                     .XXXXXXXXXXXXXXXXXXXX.                     ",
"                     .XXXXXXXXXXXXXXXXXXXX.                     ",
"                     .XXXXXXXXXXXXXXXXXXXX.                     ",
"                     .XXXX.XXXXX..XXXXXXXX.                     ",
"                     .XXX.X.....XX.....XXX.                     ",
"                     .XXXXXXXXXXXXXXXXXXXX.                     ",
"                     .XXXXXXXXXXXXXXXXXXXX.                     ",
"                     .XXXXXXXXXXXXXXXXXXXX.                     ",
"                     .XXXXXXXXXXXXXXXXXXXX.                     ",
"                     ......................                     ",
"                                                                ",
"                                                                ",
"                                                                ",
"                                                                ",
"                                                                ",
"                                                                ",
"                                                                ",
"                                                                ",
"                                                                ",
"                                                                ",
"                                                                ",
"                                                                ",
"                                                                ",
"                                                                ",
"                                                                ",
"                                                                ",
"                                                                ",
"                                                                ",
"                                                                "
};
