/* XPM */
static char *exit_open[] = {
/* columns rows colors chars-per-pixel */
"64 64 3 1 ",
"  c None",
". c black",
"X c white",
/* pixels */
"                                                                ",
"                                                                ",
"                                                                ",
"                                                                ",
"                                                                ",
"                                                                ",
"                               ..X....                          ",
"                             ...X......                         ",
"                           ....X........                        ",
"                         ......X.........                       ",
"                       .......X..........                       ",
"                      ........X.........X.                      ",
"                     .........X........X...                     ",
"                    ..X.......X.......X....                     ",
"                   ...X.......X......X......                    ",
"                   ...X.......X.....X.......                    ",
"                  ....X.......X....X.......X.                   ",
"                  ....X.......X....X......X...                  ",
"                 .....X......X....X......X.....                 ",
"                 .....X......X....X.....X......                 ",
"                 .....X......X....X....X.......                 ",
"                ......X......X...X....X.........                ",
"                .......X......X..X...X..........                ",
"                ........X.....X..X..X...........                ",
"               ..X......X.....X..X.X.............               ",
"               ..X.......X....X..XX..............               ",
"               ...X.......X....XX....XXXXXXXX....               ",
"              .....X.......XX.XXXX.XX........XXX.               ",
"              .....X.........XXXXXX...............              ",
"              ......X........XXXXXX...............              ",
"              .......XXXX....XXXXXXXXX............              ",
"              ...........XXXX.XXXX....XX..........              ",
"              ................XXX.X.....X.........              ",
"              ...............XX.X.X......X........              ",
"              ..............X.X.X..X......X.......              ",
"              .............X..XX.X..X......X......              ",
"              ...........XX...XX..X.X.......X.....              ",
"              .XXXXXXXXXX.....XX...X.X.......X....              ",
"               ..............X.X....XX.......X....              ",
"               ..............X.X....X.X.......X...              ",
"               .............X..X....X.X........X.               ",
"                ...........X...X....X..X........X               ",
"                ..........X....X....X..X.........               ",
"                .........X.....X....X...X.......                ",
"                 .XXXXXXX......X....X...X.......                ",
"                 .............X.....X....X.....                 ",
"                  ............X.....X....X....                  ",
"                  ...........X......X....X....                  ",
"                   ..........X......X.....X..                   ",
"                    ........X.......X.....X.                    ",
"                     .......X.......X.....X.                    ",
"                      .....X.......X.......                     ",
"                       ...X........X......                      ",
"                        .X.........X.....                       ",
"                         ..........X...                         ",
"                          .........X..                          ",
"                           ....... X                            ",
"                                                                ",
"                                                                ",
"                                                                ",
"                                                                ",
"                                                                ",
"                                                                ",
"                                                                "
};
