/* XPM */
static char *slenderman[] = {
/* columns rows colors chars-per-pixel */
"64 64 5 1 ",
"  c None",
". c black",
"X c #E60D0D",
"o c #847E87",
"O c white",
/* pixels */
"                                                                ",
"                                                                ",
"                                                                ",
"                                                                ",
"                            ......                              ",
"                         ...OOOOOO.                             ",
"                        .OOOOOOOOOO.                            ",
"                       .OOOOOOOOOOOO.                           ",
"                       .OO.....O..OO.                           ",
"                       .O.OO.OO.OO.OO.                          ",
"                       .O.OOOOO.O.O.O.                          ",
"                       .OO.OO..O.O.OO.     ...                  ",
"                        .OO..OOOO.OOO.    .ooXXX                ",
"                        .OOOOOOOOOOOO.    .oooooXX              ",
"                        .O.OOOOOOOOOO.     ..oooo.X             ",
"                        .O..OOOOO.OO.        .oooo.X            ",
"                        .OOO.....OOO.         .ooooX            ",
"                        .OOOOOOOOOOO.          .oooo...         ",
"        .               .OOOOOOOOOO.            ...oo...        ",
"       ....              .O.........               .....        ",
"        ....             ..OOOOOOOOO.                ....       ",
"        ...             ..OOOOOOOOOOO.                ..        ",
"        ..             .OOOOOOOOOOOOO.                ..        ",
"         ..           .OOOOOOOOOOOOOOO.              ..         ",
"         ..          .OOOOOOOOOOOOOOOOO.            ..          ",
"         ..         .OOOOOOOOOOOOOOOOOO.           ..           ",
"         ..         .OOOOOOOOOOOOOOOOOOO.         ..            ",
"          ..       .OOOOOOOOOOOOOOOOOOOOO.       ..             ",
"           ..      .OOOOOOOOOOOOOOOOOOOOO.      ..              ",
"            ..    .OOOOOOOOOOOOOOOOOOOOOOO.    ..               ",
"             ..   .OOOOOOOOOOOOOOOOOOOOOOO.   ..                ",
"              ..  .OOOOOOOOOOOOOOOOOOOOOOOO. ..                 ",
"               ....OOOOOOOOOOOOOOOOOOOOOOOOO..                  ",
"                ...OOOOOOOOOOOOOOOOOOOOOOOOO.                   ",
"                  .OOOOOOOOOOOOOOOOOOOOOOOOO.                   ",
"                  .OOOOOOOOOOOOOOOOOOOOOOOOO.                   ",
"                  .OOOOOOOOOOOOOOOOOOOOOOOOO.                   ",
"                  .OOOOOOOOOOOOOOOOOOOOOOOOO.                   ",
"                  .OOOOOOOOOOOOOOOOOOOOOOOO.                    ",
"                   .OOOOOOOOOOOOOOOOOOOOOO.                     ",
"                   .OOOOOOOOOOOOOOOOOOOOOO.                     ",
"                   .OOOOOOOOOOOOOOOOOOOOO.                      ",
"                    .OOOOOOOOOOOOOOOOOOO.                       ",
"                     .OOOOOOOOOOOOOOOOO.                        ",
"                      .OOOOOOOOOOOOOOO.                         ",
"                      ..OOOOOOOOOOOO..                          ",
"                      .......OOO......                          ",
"                      ..     ...    ..                          ",
"                      ..            ..                          ",
"                     ..             ..                          ",
"                     ..             ..                          ",
"                     ..             ..                          ",
"                     ..             ..                          ",
"                     ..             ..                          ",
"                    ...             ..                          ",
"                    ...             ..                          ",
"                   ...              ..                          ",
"                   ...              ..                          ",
"                   ..               ..                          ",
"                   ..               ..                          ",
"                 ....                ......                     ",
"              .......                .........                  ",
"             .......                  .........                 ",
"              ....                     ........                 "
};
