/* XPM */
static char *wall_south[] = {
/* columns rows colors chars-per-pixel */
"64 64 2 1 ",
"  c black",
". c white",
/* pixels */
"                                                                ",
" .............................................................. ",
" .............................................................. ",
" .............................................................. ",
" .............................................................. ",
" .............................................................. ",
" .............................................................. ",
" .............................................................. ",
" .............................................................. ",
" ................  ............................................ ",
" ............    ..    ........................................ ",
" .........   ..........    .................................... ",
" ........ .................  .................................. ",
" ....... ....................  ................................ ",
" ...... ....................... ............................... ",
" ..... ......................... .............................. ",
" .... ........................... ............................. ",
" .... ...................... .... ............................. ",
" .... ... ...... .....  ..... .. .............................. ",
" ... ... . .... . ....  ....  .. .............................. ",
" ... ... . .... .. .. . ....  .. ........................... .. ",
" ... ... .. ... .  ..  . .. . . ........................... . . ",
" ... .. ... .. ... .. ...  ...  ........................... . . ",
" ... .. .... ..   ..      .... ........................... .. . ",
" ... .. .... ........... ..... ............... ........... . .. ",
" ... . ..... ........... ............         .   ....... . ... ",
" ... . ...... .......... ........    .............  .... .. ... ",
" .... ....... ......... .......  ...................  . .. .... ",
" ............ ......... .....  ....................... .  ..... ",
" ............. ........ .... .......................... . ..... ",
" ............. ... .... ... ............................ ...... ",
".............. ...  ... .. ............................. .......",
" ............. ... . .. . .............................. ...... ",
" ............. .... .... .............................. ....... ",
" ............. ......... ............................. ........ ",
" ............. ......... .   ........................ ......... ",
" ............. ......... ...        ...............   ......... ",
" ............ ........... . ..  .  .    ......      . ......... ",
" ............ ............  . . ... ....      ... . . ......... ",
" ........... ... ....... .. . . ... ............. . .. ........ ",
" ........... .... .....   ..  . ... ............. .. .. ....... ",
" .......... ...... ... .   .. . ... ............. .. .. ....... ",
" .......... ....... .   . .. ... ... ............ ..  .. ...... ",
" ........... ....... ... .   ... .... ........... .. . .. ..... ",
" ............ ........     . ... ... ............ .. . . ...... ",
" .............        .... . .... . ............. .. .. ....... ",
" ......................... . .... . ..............  ........... ",
" .........................  ...... ............................ ",
" ......................... .................................... ",
" .............................................................. ",
" .............................................................. ",
" .............................................................. ",
" .............................................................. ",
" .............................................................. ",
" .............................................................. ",
" .............................................................. ",
" .............................................................. ",
" .............................................................. ",
" .............................................................. ",
" .............................................................. ",
" .............................................................. ",
" .............................................................. ",
" .............................................................. ",
"                                                                "
};
